HIERARCHY
ROOT Hips
{
	OFFSET 0.000000 0.000000 0.000000
	CHANNELS 6 Xposition Yposition Zposition Zrotation Yrotation Xrotation 
	JOINT LHipJoint
	{
		OFFSET 0.000000 0.000000 0.000000
		CHANNELS 3 Zrotation Yrotation Xrotation
		JOINT LeftUpLeg
		{
			OFFSET 1.363060 -1.794630 0.839290
			CHANNELS 3 Zrotation Yrotation Xrotation
			JOINT LeftLeg
			{
				OFFSET 2.448110 -6.726130 0.000000
				CHANNELS 3 Zrotation Yrotation Xrotation
				JOINT LeftFoot
				{
					OFFSET 2.562200 -7.039590 0.000000
					CHANNELS 3 Zrotation Yrotation Xrotation
					JOINT LeftToeBase
					{
						OFFSET 0.157640 -0.433110 2.322550
						CHANNELS 3 Zrotation Yrotation Xrotation
						End Site
						{
							OFFSET 0.000000 0.000000 0.000000
						}
					}
				}
			}
		}
	}
	JOINT RHipJoint
	{
		OFFSET 0.000000 0.000000 0.000000
		CHANNELS 3 Zrotation Yrotation Xrotation
		JOINT RightUpLeg
		{
			OFFSET -1.305520 -1.794630 0.839290
			CHANNELS 3 Zrotation Yrotation Xrotation
			JOINT RightLeg
			{
				OFFSET -2.542530 -6.985550 0.000000
				CHANNELS 3 Zrotation Yrotation Xrotation
				JOINT RightFoot
				{
					OFFSET -2.568260 -7.056230 0.000000
					CHANNELS 3 Zrotation Yrotation Xrotation
					JOINT RightToeBase
					{
						OFFSET -0.164730 -0.452590 2.363150
						CHANNELS 3 Zrotation Yrotation Xrotation
						End Site
						{
							OFFSET 0.000000 0.000000 0.000000
						}
					}
				}
			}
		}
	}
	JOINT LowerBack
	{
		OFFSET 0.000000 0.000000 0.000000
		CHANNELS 3 Zrotation Yrotation Xrotation
		JOINT Spine
		{
			OFFSET 0.028270 2.035590 -0.193380
			CHANNELS 3 Zrotation Yrotation Xrotation
			JOINT Spine1
			{
				OFFSET 0.056720 2.048850 -0.042750
				CHANNELS 3 Zrotation Yrotation Xrotation
				JOINT Neck
				{
					OFFSET 0.000000 0.000000 0.000000
					CHANNELS 3 Zrotation Yrotation Xrotation
					JOINT Neck1
					{
						OFFSET -0.054170 1.746240 0.172020
						CHANNELS 3 Zrotation Yrotation Xrotation
						JOINT Head
						{
							OFFSET 0.104070 1.761360 -0.123970
							CHANNELS 3 Zrotation Yrotation Xrotation
							End Site
							{
								OFFSET 0.000000 0.000000 0.000000
							}
						}
					}
				}
				JOINT LeftShoulder
				{
					OFFSET 0.000000 0.000000 0.000000
					CHANNELS 3 Zrotation Yrotation Xrotation
					JOINT LeftArm
					{
						OFFSET 3.362410 1.200890 -0.311210
						CHANNELS 3 Zrotation Yrotation Xrotation
						JOINT LeftForeArm
						{
							OFFSET 4.983000 -0.000000 -0.000000
							CHANNELS 3 Zrotation Yrotation Xrotation
							JOINT LeftHand
							{
								OFFSET 3.483560 -0.000000 -0.000000
								CHANNELS 3 Zrotation Yrotation Xrotation
								JOINT LeftFingerBase
								{
									OFFSET 0.000000 0.000000 0.000000
									CHANNELS 3 Zrotation Yrotation Xrotation
									JOINT LeftHandIndex1
									{
										OFFSET 0.715260 -0.000000 -0.000000
										CHANNELS 3 Zrotation Yrotation Xrotation
										End Site
										{
											OFFSET 0.000000 0.000000 0.000000
										}
									}
								}
								JOINT LThumb
								{
									OFFSET 0.000000 0.000000 0.000000
									CHANNELS 3 Zrotation Yrotation Xrotation
									End Site
									{
										OFFSET 0.000000 0.000000 0.000000
									}
								}
							}
						}
					}
				}
				JOINT RightShoulder
				{
					OFFSET 0.000000 0.000000 0.000000
					CHANNELS 3 Zrotation Yrotation Xrotation
					JOINT RightArm
					{
						OFFSET -3.136600 1.374050 -0.404650
						CHANNELS 3 Zrotation Yrotation Xrotation
						JOINT RightForeArm
						{
							OFFSET -5.241900 -0.000000 -0.000000
							CHANNELS 3 Zrotation Yrotation Xrotation
							JOINT RightHand
							{
								OFFSET -3.444170 -0.000000 -0.000000
								CHANNELS 3 Zrotation Yrotation Xrotation
								JOINT RightFingerBase
								{
									OFFSET 0.000000 0.000000 0.000000
									CHANNELS 3 Zrotation Yrotation Xrotation
									JOINT RightHandIndex1
									{
										OFFSET -0.622530 -0.000000 -0.000000
										CHANNELS 3 Zrotation Yrotation Xrotation
										End Site
										{
											OFFSET 0.000000 0.000000 0.000000
										}
									}
								}
								JOINT RThumb
								{
									OFFSET 0.000000 0.000000 0.000000
									CHANNELS 3 Zrotation Yrotation Xrotation
									End Site
									{
										OFFSET 0.000000 0.000000 0.000000
									}
								}
							}
						}
					}
				}
			}
		}
	}
}
MOTION
Frames: 11
Frame Time: 0.041667
0.000000 0.000000 0.000000 0.000000 0.000000 357.598996 0.000000 0.000000 0.000000 0.000000 0.000000 178.799498 0.000000 -547.916724 -182.489833 0.000000 -97.446914 178.799498 0.000000 0.000000 178.799498 0.000000 0.000000 0.000000 0.000000 -2.083331 178.799498 0.000000 -152.083402 165.964532 0.000000 -239.081435 178.799498 0.000000 0.000000 178.799498 0.000000 0.000000 0.000000 0.000000 0.000000 178.799498 0.000000 0.000000 178.799498 0.000000 0.000000 0.000000 0.000000 0.000000 178.799498 0.000000 0.000000 178.799498 0.000000 0.000000 0.000000 0.000000 -172.916656 0.000000 0.000000 -187.499992 0.000000 0.000000 0.000000 0.000000 0.000000 0.000000 0.000000 0.000000 -16.666672 0.000000 0.000000 0.000000 0.000000 0.000000 0.000000 0.000000 0.000000 -179.166650 0.000000 0.000000 -174.999981 0.000000 0.000000 0.000000 0.000000 0.000000 0.000000 0.000000 0.000000 0.000000 0.000000 0.000000 0.000000 0.000000 
0.000000 0.000000 0.000000 0.000000 0.000000 357.598996 0.000000 0.000000 0.000000 -1.123433 0.000000 178.799498 -1.123433 -547.916724 -182.489833 -1.399260 -97.446914 178.799498 -1.123433 0.000000 178.799498 0.000000 0.000000 0.000000 -1.123433 -2.083331 178.799498 -1.123433 -152.083402 165.964532 -1.123433 -239.081435 178.799498 -1.123433 0.000000 178.799498 0.000000 0.000000 0.000000 -2.246866 0.000000 178.799498 0.000000 0.000000 178.799498 0.000000 0.000000 0.000000 -1.123433 0.000000 178.799498 0.000000 0.000000 178.799498 0.000000 0.000000 0.000000 -1.123433 -172.916656 0.000000 -1.123433 -187.499992 0.000000 -1.123433 0.000000 0.000000 0.000000 0.000000 0.000000 -1.123433 -16.666672 0.000000 0.000000 0.000000 0.000000 0.000000 0.000000 0.000000 -1.123433 -179.166650 0.000000 -1.123433 -174.999981 0.000000 -1.123433 0.000000 0.000000 0.000000 0.000000 0.000000 -1.123433 0.000000 0.000000 0.000000 0.000000 0.000000 
0.000000 0.000000 0.000000 0.000000 0.000000 357.598996 0.000000 0.000000 0.000000 -2.246866 0.000000 178.799498 -2.246866 -547.916724 -182.489833 -2.798519 -97.446914 178.799498 -2.246866 0.000000 178.799498 0.000000 0.000000 0.000000 -2.246866 -2.083331 178.799498 -2.246866 -152.083402 165.964532 -2.246866 -239.081435 178.799498 -2.246866 0.000000 178.799498 0.000000 0.000000 0.000000 -4.493731 0.000000 178.799498 0.000000 0.000000 178.799498 0.000000 0.000000 0.000000 -2.246866 0.000000 178.799498 0.000000 0.000000 178.799498 0.000000 0.000000 0.000000 -2.246866 -172.916656 0.000000 -2.246866 -187.499992 0.000000 -2.246866 0.000000 0.000000 0.000000 0.000000 0.000000 -2.246866 -16.666672 0.000000 0.000000 0.000000 0.000000 0.000000 0.000000 0.000000 -2.246866 -179.166650 0.000000 -2.246866 -174.999981 0.000000 -2.246866 0.000000 0.000000 0.000000 0.000000 0.000000 -2.246866 0.000000 0.000000 0.000000 0.000000 0.000000 
0.000000 0.000000 0.000000 0.000000 0.000000 357.598996 0.000000 0.000000 0.000000 -3.370298 0.000000 178.799498 -3.370298 -547.916724 -182.489833 -4.197779 -97.446914 178.799498 -3.370298 0.000000 178.799498 0.000000 0.000000 0.000000 -3.370298 -2.083331 178.799498 -3.370298 -152.083402 165.964532 -3.370298 -239.081435 178.799498 -3.370298 0.000000 178.799498 0.000000 0.000000 0.000000 -6.740597 0.000000 178.799498 0.000000 0.000000 178.799498 0.000000 0.000000 0.000000 -3.370298 0.000000 178.799498 0.000000 0.000000 178.799498 0.000000 0.000000 0.000000 -3.370298 -172.916656 0.000000 -3.370298 -187.499992 0.000000 -3.370298 0.000000 0.000000 0.000000 0.000000 0.000000 -3.370298 -16.666672 0.000000 0.000000 0.000000 0.000000 0.000000 0.000000 0.000000 -3.370298 -179.166650 0.000000 -3.370298 -174.999981 0.000000 -3.370298 0.000000 0.000000 0.000000 0.000000 0.000000 -3.370298 0.000000 0.000000 0.000000 0.000000 0.000000 
0.000000 0.000000 0.000000 0.000000 0.000000 357.598996 0.000000 0.000000 0.000000 -4.493731 0.000000 178.799498 -4.493731 -547.916724 -182.489833 -5.597039 -97.446914 178.799498 -4.493731 0.000000 178.799498 0.000000 0.000000 0.000000 -4.493731 -2.083331 178.799498 -4.493731 -152.083402 165.964532 -4.493731 -239.081435 178.799498 -4.493731 0.000000 178.799498 0.000000 0.000000 0.000000 -8.987462 0.000000 178.799498 0.000000 0.000000 178.799498 0.000000 0.000000 0.000000 -4.493731 0.000000 178.799498 0.000000 0.000000 178.799498 0.000000 0.000000 0.000000 -4.493731 -172.916656 0.000000 -4.493731 -187.499992 0.000000 -4.493731 0.000000 0.000000 0.000000 0.000000 0.000000 -4.493731 -16.666672 0.000000 0.000000 0.000000 0.000000 0.000000 0.000000 0.000000 -4.493731 -179.166650 0.000000 -4.493731 -174.999981 0.000000 -4.493731 0.000000 0.000000 0.000000 0.000000 0.000000 -4.493731 0.000000 0.000000 0.000000 0.000000 0.000000 
0.000000 0.000000 0.000000 0.000000 0.000000 357.598996 0.000000 0.000000 0.000000 -5.617164 0.000000 178.799498 -5.617164 -547.916724 -182.489833 -6.996298 -97.446914 178.799498 -5.617164 0.000000 178.799498 0.000000 0.000000 0.000000 -5.617164 -2.083331 178.799498 -5.617164 -152.083402 165.964532 -5.617164 -239.081435 178.799498 -5.617164 0.000000 178.799498 0.000000 0.000000 0.000000 -11.234328 0.000000 178.799498 0.000000 0.000000 178.799498 0.000000 0.000000 0.000000 -5.617164 0.000000 178.799498 0.000000 0.000000 178.799498 0.000000 0.000000 0.000000 -5.617164 -172.916656 0.000000 -5.617164 -187.499992 0.000000 -5.617164 0.000000 0.000000 0.000000 0.000000 0.000000 -5.617164 -16.666672 0.000000 0.000000 0.000000 0.000000 0.000000 0.000000 0.000000 -5.617164 -179.166650 0.000000 -5.617164 -174.999981 0.000000 -5.617164 0.000000 0.000000 0.000000 0.000000 0.000000 -5.617164 0.000000 0.000000 0.000000 0.000000 0.000000 
0.000000 0.000000 0.000000 0.000000 0.000000 357.598996 0.000000 0.000000 0.000000 -6.740597 0.000000 178.799498 -6.740597 -547.916724 -182.489833 -8.395558 -97.446914 178.799498 -6.740597 0.000000 178.799498 0.000000 0.000000 0.000000 -6.740597 -2.083331 178.799498 -6.740597 -152.083402 165.964532 -6.740597 -239.081435 178.799498 -6.740597 0.000000 178.799498 0.000000 0.000000 0.000000 -13.481194 0.000000 178.799498 0.000000 0.000000 178.799498 0.000000 0.000000 0.000000 -6.740597 0.000000 178.799498 0.000000 0.000000 178.799498 0.000000 0.000000 0.000000 -6.740597 -172.916656 0.000000 -6.740597 -187.499992 0.000000 -6.740597 0.000000 0.000000 0.000000 0.000000 0.000000 -6.740597 -16.666672 0.000000 0.000000 0.000000 0.000000 0.000000 0.000000 0.000000 -6.740597 -179.166650 0.000000 -6.740597 -174.999981 0.000000 -6.740597 0.000000 0.000000 0.000000 0.000000 0.000000 -6.740597 0.000000 0.000000 0.000000 0.000000 0.000000 
0.000000 0.000000 0.000000 0.000000 0.000000 357.598996 0.000000 0.000000 0.000000 -7.864030 0.000000 178.799498 -7.864030 -547.916724 -182.489833 -9.794818 -97.446914 178.799498 -7.864030 0.000000 178.799498 0.000000 0.000000 0.000000 -7.864030 -2.083331 178.799498 -7.864030 -152.083402 165.964532 -7.864030 -239.081435 178.799498 -7.864030 0.000000 178.799498 0.000000 0.000000 0.000000 -15.728059 0.000000 178.799498 0.000000 0.000000 178.799498 0.000000 0.000000 0.000000 -7.864030 0.000000 178.799498 0.000000 0.000000 178.799498 0.000000 0.000000 0.000000 -7.864030 -172.916656 0.000000 -7.864030 -187.499992 0.000000 -7.864030 0.000000 0.000000 0.000000 0.000000 0.000000 -7.864030 -16.666672 0.000000 0.000000 0.000000 0.000000 0.000000 0.000000 0.000000 -7.864030 -179.166650 0.000000 -7.864030 -174.999981 0.000000 -7.864030 0.000000 0.000000 0.000000 0.000000 0.000000 -7.864030 0.000000 0.000000 0.000000 0.000000 0.000000 
0.000000 0.000000 0.000000 0.000000 0.000000 357.598996 0.000000 0.000000 0.000000 -8.987462 0.000000 178.799498 -8.987462 -547.916724 -182.489833 -11.194078 -97.446914 178.799498 -8.987462 0.000000 178.799498 0.000000 0.000000 0.000000 -8.987462 -2.083331 178.799498 -8.987462 -152.083402 165.964532 -8.987462 -239.081435 178.799498 -8.987462 0.000000 178.799498 0.000000 0.000000 0.000000 -17.974925 0.000000 178.799498 0.000000 0.000000 178.799498 0.000000 0.000000 0.000000 -8.987462 0.000000 178.799498 0.000000 0.000000 178.799498 0.000000 0.000000 0.000000 -8.987462 -172.916656 0.000000 -8.987462 -187.499992 0.000000 -8.987462 0.000000 0.000000 0.000000 0.000000 0.000000 -8.987462 -16.666672 0.000000 0.000000 0.000000 0.000000 0.000000 0.000000 0.000000 -8.987462 -179.166650 0.000000 -8.987462 -174.999981 0.000000 -8.987462 0.000000 0.000000 0.000000 0.000000 0.000000 -8.987462 0.000000 0.000000 0.000000 0.000000 0.000000 
0.000000 0.000000 0.000000 0.000000 0.000000 357.598996 0.000000 0.000000 0.000000 -10.110895 0.000000 178.799498 -10.110895 -547.916724 -182.489833 -12.593337 -97.446914 178.799498 -10.110895 0.000000 178.799498 0.000000 0.000000 0.000000 -10.110895 -2.083331 178.799498 -10.110895 -152.083402 165.964532 -10.110895 -239.081435 178.799498 -10.110895 0.000000 178.799498 0.000000 0.000000 0.000000 -20.221790 0.000000 178.799498 0.000000 0.000000 178.799498 0.000000 0.000000 0.000000 -10.110895 0.000000 178.799498 0.000000 0.000000 178.799498 0.000000 0.000000 0.000000 -10.110895 -172.916656 0.000000 -10.110895 -187.499992 0.000000 -10.110895 0.000000 0.000000 0.000000 0.000000 0.000000 -10.110895 -16.666672 0.000000 0.000000 0.000000 0.000000 0.000000 0.000000 0.000000 -10.110895 -179.166650 0.000000 -10.110895 -174.999981 0.000000 -10.110895 0.000000 0.000000 0.000000 0.000000 0.000000 -10.110895 0.000000 0.000000 0.000000 0.000000 0.000000 
0.000000 0.000000 0.000000 0.000000 0.000000 357.598996 0.000000 0.000000 0.000000 -11.234328 0.000000 178.799498 -11.234328 -547.916724 -182.489833 -13.992597 -97.446914 178.799498 -11.234328 0.000000 178.799498 0.000000 0.000000 0.000000 -11.234328 -2.083331 178.799498 -11.234328 -152.083402 165.964532 -11.234328 -239.081435 178.799498 -11.234328 0.000000 178.799498 0.000000 0.000000 0.000000 -22.468656 0.000000 178.799498 0.000000 0.000000 178.799498 0.000000 0.000000 0.000000 -11.234328 0.000000 178.799498 0.000000 0.000000 178.799498 0.000000 0.000000 0.000000 -11.234328 -172.916656 0.000000 -11.234328 -187.499992 0.000000 -11.234328 0.000000 0.000000 0.000000 0.000000 0.000000 -11.234328 -16.666672 0.000000 0.000000 0.000000 0.000000 0.000000 0.000000 0.000000 -11.234328 -179.166650 0.000000 -11.234328 -174.999981 0.000000 -11.234328 0.000000 0.000000 0.000000 0.000000 0.000000 -11.234328 0.000000 0.000000 0.000000 0.000000 0.000000 
